<svg width="200" height="200" xmlns="http://www.w3.org/2000/svg" version="1.1">
 <g>
  <title>Layer 1</title>
  <path fill="#eee841" d="m95.2,151.3c0.1,1.7 -0.4,2.7 -2.3,2.7l-8.1,0c-2.1,0 -2.5,-1 -2.6,-3.3l-1.4,-40.6l-0.2,0l-17,42.1c-0.6,1.6 -1.6,1.8 -2.7,1.8l-3.5,0c-1.5,0 -2.4,-0.3 -3.1,-1.9l-18.9,-42l-0.2,0l-0.9,41.4c0,2.2 -0.9,2.5 -2.7,2.5l-6.8,0c-1.9,0 -2.7,-0.7 -2.6,-2.6l2.5,-63.9c0.1,-2.1 0.8,-2.7 2.4,-2.7l5.9,0c2,0 2.7,0.7 3.4,2.2l23.1,49.4l0.2,0l21.1,-49.4c0.6,-1.5 1.4,-2.2 3.2,-2.2l5.9,0c1.6,0 2.2,0.6 2.3,2.2l3,64.3zm69.85,1.5c0,0.8 -0.6,1.2 -1.5,1.2l-9.1,0c-1.8,0 -3,-0.5 -3.9,-2l-14.4,-23.5l-7.7,0l0,23c0,1.5 -0.6,2.5 -2.3,2.5l-8.2,0c-1.7,0 -2.4,-0.8 -2.4,-2.5l0,-63.8c0,-2.2 0.5,-2.9 2.7,-2.9l14.8,0c8.7,0 17.9,1.3 23.2,7.4c3.2,3.7 4.8,8.6 4.8,14c0,9.2 -4.9,16.4 -12.9,19.9l16.4,25.3c0.3,0.5 0.5,1 0.5,1.4zm-17.1,-46.4c0,-8.7 -5.8,-11.8 -14.5,-11.8l-5,0l0,24.2l6.2,0c8,0 13.3,-4.3 13.3,-12.4z" id="svg_1"/>
  <path fill="#" id="svg_2"/>
 </g>

</svg>