<svg width="426" height="340" viewBox="0 0 426 340" fill="none" xmlns="http://www.w3.org/2000/svg">
<path d="M201.425 258.6L100.825 169.8L113.225 158.8L201.325 80.9996C201.525 80.7996 201.725 80.5996 201.925 80.3996L206.025 76.7996C217.625 66.4996 217.625 48.4996 206.125 38.1996L190.425 24.1996L163.225 0.0996094L156.825 5.79961L19.125 127.3C-6.375 149.8 -6.375 189.6 19.125 212.1L163.525 339.6L201.625 305.5C215.625 293 215.525 271.1 201.425 258.6Z" fill="url(#paint0_linear_708_64)"/>
<path opacity="0.8" d="M206.025 76.7996L100.825 169.8L80.325 151.7C56.725 130.9 56.725 94.0996 80.325 73.2996L163.225 0.0996094L206.125 38.1996C217.725 48.3996 217.725 66.4996 206.025 76.7996Z" fill="url(#paint1_linear_708_64)"/>
<path d="M406.325 127.5L262.025 0L223.925 34.1C209.925 46.6 209.925 68.6 224.125 81.1L324.725 169.9L312.325 180.9L224.225 258.7C224.025 258.9 223.825 259.1 223.625 259.3L219.525 262.9C207.925 273.2 207.925 291.2 219.425 301.5L234.725 315.3L262.125 339.7L268.025 334.5L406.225 212.4C431.825 189.9 431.825 150.1 406.325 127.5Z" fill="url(#paint2_linear_708_64)"/>
<path opacity="0.8" d="M219.425 263L324.625 170L345.125 188.1C368.725 208.9 368.725 245.7 345.125 266.5L262.225 339.7L219.325 301.6C207.725 291.3 207.725 273.2 219.425 263Z" fill="url(#paint3_linear_708_64)"/>
<path d="M273.225 154.3H218.225L198.825 173.8H258.625L213.225 212.6L162.925 169.1L213.625 127L226.325 138.1H259.925L220.825 104.3C218.725 102.2 216.025 101.1 213.025 101.1C210.125 101.1 207.325 102.2 205.325 104.2L132.225 168.2L131.325 169L206.325 235.5C208.425 237.6 211.225 238.7 214.125 238.7C216.825 238.7 219.625 237.7 221.725 235.7L294.025 172.2L273.225 154.3Z" fill="#0B62AA"/>
<defs>
<linearGradient id="paint0_linear_708_64" x1="29.4676" y1="169.856" x2="396.499" y2="169.856" gradientUnits="userSpaceOnUse">
<stop offset="0.042328" stop-color="#00EF91"/>
<stop offset="0.5212" stop-color="#70C5FB"/>
<stop offset="0.9524" stop-color="#007BEA"/>
</linearGradient>
<linearGradient id="paint1_linear_708_64" x1="192.325" y1="27.704" x2="78.5167" y2="137.297" gradientUnits="userSpaceOnUse">
<stop offset="0.042328" stop-color="#001E49" stop-opacity="0"/>
<stop offset="0.9312" stop-color="#001E49" stop-opacity="0.6"/>
</linearGradient>
<linearGradient id="paint2_linear_708_64" x1="29.4677" y1="169.869" x2="396.499" y2="169.869" gradientUnits="userSpaceOnUse">
<stop offset="0.042328" stop-color="#00EF91"/>
<stop offset="0.5212" stop-color="#70C5FB"/>
<stop offset="0.9524" stop-color="#007BEA"/>
</linearGradient>
<linearGradient id="paint3_linear_708_64" x1="234.557" y1="308.929" x2="350.473" y2="201.443" gradientUnits="userSpaceOnUse">
<stop offset="0.042328" stop-color="#001E49" stop-opacity="0"/>
<stop offset="0.9312" stop-color="#001E49" stop-opacity="0.6"/>
</linearGradient>
</defs>
</svg>
