<svg width="143" height="70" viewBox="0 0 143 70" fill="none" xmlns="http://www.w3.org/2000/svg">
<path d="M73.0083 66.5C73.1083 68.2 72.6083 69.2 70.7083 69.2H62.6083C60.5083 69.2 60.1083 68.2 60.0083 65.9L58.6083 25.3H58.4083L41.4083 67.4C40.8083 69 39.8083 69.2 38.7083 69.2H35.2083C33.7083 69.2 32.8083 68.9 32.1083 67.3L13.2083 25.3H13.0083L12.1083 66.7C12.1083 68.9 11.2083 69.2 9.4083 69.2H2.6083C0.708298 69.2 -0.0917006 68.5 0.00829937 66.6L2.5083 2.7C2.6083 0.599997 3.3083 0 4.9083 0H10.8083C12.8083 0 13.5083 0.699997 14.2083 2.2L37.3083 51.6H37.5083L58.6083 2.2C59.2083 0.699997 60.0083 0 61.8083 0H67.7083C69.3083 0 69.9083 0.599997 70.0083 2.2L73.0083 66.5V66.5ZM142.858 68C142.858 68.8 142.258 69.2 141.358 69.2H132.258C130.458 69.2 129.258 68.7 128.358 67.2L113.958 43.7H106.258V66.7C106.258 68.2 105.658 69.2 103.958 69.2H95.7583C94.0583 69.2 93.3583 68.4 93.3583 66.7V2.89999C93.3583 0.699994 93.8583 0 96.0583 0H110.858C119.558 0 128.758 1.29999 134.058 7.39999C137.258 11.1 138.858 16 138.858 21.4C138.858 30.6 133.958 37.8 125.958 41.3L142.358 66.6C142.658 67.1 142.858 67.6 142.858 68ZM125.758 21.6C125.758 12.9 119.958 9.8 111.258 9.8H106.258V34H112.458C120.458 34 125.758 29.7 125.758 21.6Z" fill="black"/>
</svg>
